Coordinates
version=1
nRows=13
nColumns=40
inDegrees=yes

Units are S.I. units (second, meters, Newtons, ...)
If the header above contains a line with 'inDegrees', this indicates whether rotational values are in degrees (yes) or radians (no).

endheader
time	pelvis_tilt	pelvis_list	pelvis_rotation	pelvis_tx	pelvis_ty	pelvis_tz	hip_flexion_r	hip_adduction_r	hip_rotation_r	knee_angle_r	knee_angle_r_beta	ankle_angle_r	subtalar_angle_r	mtp_angle_r	hip_flexion_l	hip_adduction_l	hip_rotation_l	knee_angle_l	knee_angle_l_beta	ankle_angle_l	subtalar_angle_l	mtp_angle_l	lumbar_extension	lumbar_bending	lumbar_rotation	arm_flex_r	arm_add_r	arm_rot_r	elbow_flex_r	pro_sup_r	wrist_flex_r	wrist_dev_r	arm_flex_l	arm_add_l	arm_rot_l	elbow_flex_l	pro_sup_l	wrist_flex_l	wrist_dev_l
      0.00000000	      0.20529130	      1.51722873	     -1.72715480	      0.26677256	      0.91256257	     -1.21468168	     -0.12420793	    -20.60885767	    -36.14071213	      7.19291794	      0.12554010	     -5.73799495	     10.61371172	      0.00000000	     -0.02046798	    -17.41302801	    -38.92812020	      8.19006733	      0.14294364	     -3.96407524	     19.42454229	      0.00000000	      0.00000000	      0.00000000	      0.00000000	     44.40256258	    -16.05445103	     44.40256258	     75.26833022	     45.00884295	      0.00000000	      0.00000000	     44.40256258	    -16.05445103	     44.40256258	     75.26833022	     45.00884295	      0.00000000	      0.00000000
      0.00500000	      0.18906950	      1.62716823	     -1.69810724	      0.26682020	      0.91246024	     -1.21474592	     -0.04479292	    -20.82508919	    -36.38645505	      7.41887973	      0.12948388	     -5.55974065	     10.93185330	      0.00000000	      0.00504438	    -17.28412056	    -38.91650864	      8.17495816	      0.14267994	     -3.96692066	     19.42756656	      0.00000000	      0.00000000	      0.00000000	      0.00000000	     44.44261221	    -15.94977425	     44.44261221	     75.22683417	     45.00673056	      0.00000000	      0.00000000	     44.44261221	    -15.94977425	     44.44261221	     75.22683417	     45.00673056	      0.00000000	      0.00000000
      0.01000000	      0.15144602	      1.53946624	     -1.73375054	      0.26673934	      0.91246322	     -1.21464984	     -0.01625415	    -20.67291136	    -36.21434646	      7.30513521	      0.12749866	     -5.66353781	     10.70523761	      0.00000000	      0.03731081	    -17.39255564	    -38.92638379	      8.18331845	      0.14282585	     -3.96778270	     19.45903059	      0.00000000	      0.00000000	      0.00000000	      0.00000000	     44.48652738	    -15.83740047	     44.48652738	     75.18324100	     45.00429886	      0.00000000	      0.00000000	     44.48652738	    -15.83740047	     44.48652738	     75.18324100	     45.00429886	      0.00000000	      0.00000000
      0.01500000	      0.20813665	      1.60283386	     -1.75331278	      0.26669125	      0.91253198	     -1.21464424	     -0.07188990	    -20.74023810	    -36.17697247	      7.28819657	      0.12720303	     -5.67238858	     10.67883393	      0.00000000	     -0.03948372	    -17.30013461	    -38.93280765	      8.14067131	      0.14208152	     -4.00611376	     19.38951174	      0.00000000	      0.00000000	      0.00000000	      0.00000000	     44.49894170	    -15.80774037	     44.49894170	     75.17321249	     45.00390749	      0.00000000	      0.00000000	     44.49894170	    -15.80774037	     44.49894170	     75.17321249	     45.00390749	      0.00000000	      0.00000000
      0.02000000	      0.20232303	      1.53664558	     -1.72628023	      0.26666401	      0.91254566	     -1.21466929	     -0.09288461	    -20.65123696	    -36.20509708	      7.24396220	      0.12643099	     -5.71328656	     10.65947535	      0.00000000	     -0.00866413	    -17.39043800	    -38.91556339	      8.18346974	      0.14282849	     -3.97538130	     19.40818642	      0.00000000	      0.00000000	      0.00000000	      0.00000000	     44.57211047	    -15.65348145	     44.57211047	     75.13146452	     45.00262762	      0.00000000	      0.00000000	     44.57211047	    -15.65348145	     44.57211047	     75.13146452	     45.00262762	      0.00000000	      0.00000000
      0.02500000	      0.20343679	      1.54795504	     -1.73217746	      0.26661158	      0.91252740	     -1.21465726	     -0.07462337	    -20.67514801	    -36.21609554	      7.27697533	      0.12700718	     -5.68267728	     10.68938500	      0.00000000	     -0.00825715	    -17.37842120	    -38.91766877	      8.18519605	      0.14285862	     -3.96978255	     19.40858298	      0.00000000	      0.00000000	      0.00000000	      0.00000000	     44.60220568	    -15.58563371	     44.60220568	     75.10977058	     45.00182811	      0.00000000	      0.00000000	     44.60220568	    -15.58563371	     44.60220568	     75.10977058	     45.00182811	      0.00000000	      0.00000000
      0.03000000	      0.19624593	      1.53655271	     -1.73497586	      0.26656878	      0.91251791	     -1.21463613	     -0.06401139	    -20.66035024	    -36.21787298	      7.26960675	      0.12687857	     -5.69599219	     10.68953655	      0.00000000	      0.00521994	    -17.39388826	    -38.91126607	      8.19307944	      0.14299621	     -3.97136582	     19.38637672	      0.00000000	      0.00000000	      0.00000000	      0.00000000	     44.69382710	    -15.40050468	     44.69382710	     75.06264722	     45.00078026	      0.00000000	      0.00000000	     44.69382710	    -15.40050468	     44.69382710	     75.06264722	     45.00078026	      0.00000000	      0.00000000
      0.03500000	      0.21098917	      1.57991360	     -1.73798359	      0.26648145	      0.91254792	     -1.21464485	     -0.09588364	    -20.67442482	    -36.10552911	      7.19236603	      0.12553047	     -5.74112834	     10.52686267	      0.00000000	     -0.00199874	    -17.34073486	    -38.92114075	      8.18824694	      0.14291187	     -4.00676307	     19.37632089	      0.00000000	      0.00000000	      0.00000000	      0.00000000	     44.69636895	    -15.39535935	     44.69636895	     75.06122468	     45.00073696	      0.00000000	      0.00000000	     44.69636895	    -15.39535935	     44.69636895	     75.06122468	     45.00073696	      0.00000000	      0.00000000
      0.04000000	      0.21974884	      1.38546967	     -1.68237481	      0.26645679	      0.91262512	     -1.21472885	     -0.19569993	    -20.39399345	    -36.07313298	      7.01865023	      0.12249856	     -5.87738032	     10.34658799	      0.00000000	      0.03897834	    -17.59992569	    -38.90470112	      8.30674778	      0.14498010	     -3.89604080	     19.45851445	      0.00000000	      0.00000000	      0.00000000	      0.00000000	     44.70638681	    -15.37748371	     44.70638681	     75.05721998	     45.00065487	      0.00000000	      0.00000000	     44.70638681	    -15.37748371	     44.70638681	     75.05721998	     45.00065487	      0.00000000	      0.00000000
      0.04500000	      0.14308544	      1.27992321	     -1.78202477	      0.26631423	      0.91253571	     -1.21448323	     -0.03240788	    -20.27846321	    -35.98481628	      7.07188290	      0.12342764	     -5.91818251	     10.37591928	      0.00000000	      0.08965922	    -17.73329653	    -38.94401761	      8.30262928	      0.14490822	     -3.93309494	     19.47257681	      0.00000000	      0.00000000	      0.00000000	      0.00000000	     44.71189222	    -15.36747312	     44.71189222	     75.05497313	     45.00061226	      0.00000000	      0.00000000	     44.71189222	    -15.36747312	     44.71189222	     75.05497313	     45.00061226	      0.00000000	      0.00000000
      0.05000000	      0.21045830	      1.53122541	     -1.73969898	      0.26637036	      0.91254004	     -1.21463293	     -0.07599299	    -20.63356514	    -36.16501195	      7.22121093	      0.12603391	     -5.72360225	     10.59015245	      0.00000000	      0.00575460	    -17.40111473	    -38.91056749	      8.20187780	      0.14314977	     -3.96736428	     19.37324435	      0.00000000	      0.00000000	      0.00000000	      0.00000000	     44.73221473	    -15.33104041	     44.73221473	     75.04696938	     45.00046595	      0.00000000	      0.00000000	     44.73221473	    -15.33104041	     44.73221473	     75.04696938	     45.00046595	      0.00000000	      0.00000000
      0.05500000	      0.24373195	      1.56600111	     -1.76309230	      0.26629087	      0.91258741	     -1.21460724	     -0.10367106	    -20.66304632	    -36.10397187	      7.19579741	      0.12559036	     -5.75484487	     10.53241441	      0.00000000	     -0.05196977	    -17.33878731	    -38.89980251	      8.14422527	      0.14214355	     -3.99883375	     19.32410676	      0.00000000	      0.00000000	      0.00000000	      0.00000000	     44.73329441	    -15.32894280	     44.73329441	     75.04643067	     45.00045289	      0.00000000	      0.00000000	     44.73329441	    -15.32894280	     44.73329441	     75.04643067	     45.00045289	      0.00000000	      0.00000000
      0.06000000	      0.22516146	      1.25311387	     -1.70495201	      0.26621321	      0.91268829	     -1.21466169	     -0.25191569	    -20.18209150	    -36.00735420	      6.80512633	      0.11877186	     -6.07049271	     10.44494817	      0.00000000	      0.05117599	    -17.74704165	    -38.83287187	      8.33514064	      0.14547565	     -3.85113103	     19.21727934	      0.00000000	      0.00000000	      0.00000000	      0.00000000	     44.73852085	    -15.32003867	     44.73852085	     75.04459886	     45.00042171	      0.00000000	      0.00000000	     44.73852085	    -15.32003867	     44.73852085	     75.04459886	     45.00042171	      0.00000000	      0.00000000
